<svg width="284" height="51" viewBox="0 0 284 51" fill="none" xmlns="http://www.w3.org/2000/svg">
<mask id="mask0_6_158" style="mask-type:luminance" maskUnits="userSpaceOnUse" x="0" y="0" width="43" height="26">
<path d="M0 0.5H42.9854V25.6861H0V0.5Z" fill="white"/>
</mask>
<g mask="url(#mask0_6_158)">
<path d="M0.020681 1.40527C0.020681 4.01771 0.064084 6.63015 1.29121e-05 9.2426C-0.033056 10.7038 0.489846 11.9088 1.47158 12.9112C3.94761 15.4285 6.45464 17.9232 8.95135 20.4199C10.5325 21.9969 12.1322 23.5656 13.7009 25.1653C13.9778 25.4422 14.17 25.5063 14.5441 25.3141C22.7927 21.1763 31.062 17.0717 39.3106 12.9236C41.3609 11.8881 42.4584 10.1706 42.4584 7.82477C42.4584 5.67116 42.4584 3.51755 42.4584 1.36393C42.4584 1.16139 42.4584 0.958841 42.4584 0.712891H0.020681C0.020681 0.958841 0.020681 1.18206 0.020681 1.40527Z" fill="white"/>
</g>
<mask id="mask1_6_158" style="mask-type:luminance" maskUnits="userSpaceOnUse" x="0" y="25" width="43" height="26">
<path d="M0 25.1567H42.9854V50.4999H0V25.1567Z" fill="white"/>
</mask>
<g mask="url(#mask1_6_158)">
<path d="M40.9868 38.0997C38.5108 35.5844 36.0037 33.0877 33.507 30.5931C31.9259 29.0141 30.3262 27.4474 28.7575 25.8477C28.4806 25.5708 28.2884 25.5067 27.9143 25.6989C19.6656 29.8366 11.3964 33.9413 3.14774 38.0894C1.10987 39.1228 0 40.8403 0 43.1861C0 45.3398 0 47.4954 0 49.649C0 49.8516 0 50.0541 0 50.3001H42.448C42.448 50.0438 42.448 49.8185 42.448 49.5953C42.448 46.9829 42.4046 44.3704 42.4687 41.758C42.5018 40.2968 41.9789 39.0918 40.9971 38.0894L40.9868 38.0997Z" fill="white"/>
</g>
<path d="M58.968 18.1258H64.6021V33.7385H76.5214V18.1258H82.1452V8.76318H58.968V18.1258Z" fill="white"/>
<path d="M121.915 19.7586H121.148L118.308 8.76318H103.508V33.7385H114.307V23.1812H115.117L118.138 33.7385H124.455L127.474 23.1812H128.286V33.7385H139.042V8.76318H124.647L121.915 19.7586Z" fill="white"/>
<path d="M143.843 33.7385H167.021V26.5501H155.763V24.227H166.295V18.1258H155.763V15.9515H167.021V8.76318H143.843V33.7385Z" fill="white"/>
<path d="M184.245 8.76318H171.78V33.7385H192.056V24.3758H184.245V8.76318Z" fill="white"/>
<path d="M196.27 33.7385H219.447V26.5501H208.189V24.227H218.721V18.1258H208.189V15.9515H219.447V8.76318H196.27V33.7385Z" fill="white"/>
<path d="M245.282 8.76334H230.492C225.914 8.76334 224.207 10.4705 224.207 15.0444V18.2768C224.207 23.171 226.524 24.1734 231.379 24.4504L239.648 24.9299V27.8937H235.764V26.0067H224.207V27.4576C224.207 32.0314 225.914 33.7386 230.492 33.7386H245.282C249.86 33.7386 251.567 32.0314 251.567 27.4576V23.8221C251.567 19.0002 249.252 17.9978 244.397 17.6795L236.126 17.1566V14.5545H240.012V16.1108H251.567V15.0237C251.567 10.4478 249.86 8.74268 245.282 8.74268V8.76334Z" fill="white"/>
<mask id="mask2_6_158" style="mask-type:luminance" maskUnits="userSpaceOnUse" x="256" y="8" width="28" height="27">
<path d="M256.214 8.75488H283.731V34.1518H256.214V8.75488Z" fill="white"/>
</mask>
<g mask="url(#mask2_6_158)">
<path d="M283.731 16.1339V15.0447C283.731 10.4709 282.022 8.76367 277.446 8.76367H262.656C258.078 8.76367 256.37 10.4709 256.37 15.0447V18.2772C256.37 23.1714 258.685 24.1738 263.54 24.4507L271.81 24.9302V27.894H267.926V26.007H256.37V27.4579C256.37 32.0318 258.078 33.7389 262.656 33.7389H277.446C282.022 33.7389 283.731 32.0318 283.731 27.4579V23.8224C283.731 19.0006 281.414 17.9982 276.559 17.6799L268.29 17.157V14.5549H272.173V16.1112H283.731V16.1339Z" fill="white"/>
</g>
<path d="M88.8994 8.76318H96.187C96.3502 8.76318 96.5094 8.77972 96.6685 8.81072C96.8277 8.84172 96.9806 8.88926 97.1315 8.95126C97.2803 9.01327 97.4229 9.08974 97.5573 9.17861C97.6916 9.26955 97.8156 9.37082 97.9314 9.4845C98.045 9.60024 98.1463 9.72425 98.2372 9.85859C98.3261 9.99293 98.4026 10.1355 98.4646 10.2844C98.5266 10.4332 98.5741 10.5882 98.6051 10.7473C98.6361 10.9044 98.6527 11.0656 98.6527 11.2268V15.5464C98.6527 15.7077 98.6361 15.8689 98.6051 16.0259C98.5741 16.1851 98.5266 16.3401 98.4646 16.4889C98.4026 16.6377 98.3261 16.7803 98.2372 16.9147C98.1463 17.049 98.045 17.173 97.9314 17.2888C97.8156 17.4024 97.6916 17.5037 97.5573 17.5946C97.4229 17.6835 97.2803 17.76 97.1315 17.822C96.9806 17.884 96.8277 17.9295 96.6685 17.9625C96.5094 17.9935 96.3502 18.0101 96.187 18.0101H88.8994C88.7382 18.0101 88.577 17.9935 88.4178 17.9625C88.2587 17.9295 88.1058 17.884 87.9549 17.822C87.8061 17.76 87.6635 17.6835 87.5291 17.5946C87.3948 17.5037 87.2708 17.4024 87.1571 17.2888C87.0414 17.173 86.9401 17.049 86.8491 16.9147C86.7603 16.7803 86.6838 16.6377 86.6218 16.4889C86.5598 16.3401 86.5123 16.1851 86.4813 16.0259C86.4503 15.8689 86.4337 15.7077 86.4337 15.5464V11.2268C86.4337 11.0656 86.4503 10.9044 86.4813 10.7473C86.5123 10.5882 86.5598 10.4332 86.6218 10.2844C86.6838 10.1355 86.7603 9.99293 86.8491 9.85859C86.9401 9.72425 87.0414 9.60024 87.1571 9.4845C87.2708 9.37082 87.3948 9.26955 87.5291 9.17861C87.6635 9.08974 87.8061 9.01327 87.9549 8.95126C88.1058 8.88926 88.2587 8.84172 88.4178 8.81072C88.577 8.77972 88.7382 8.76318 88.8994 8.76318Z" fill="white"/>
<path d="M88.8994 24.4937H96.187C96.3502 24.4937 96.5094 24.5081 96.6685 24.5412C96.8277 24.5722 96.9806 24.6177 97.1315 24.6797C97.2803 24.7417 97.4229 24.8181 97.5573 24.907C97.6916 24.998 97.8156 25.0992 97.9314 25.215C98.045 25.3286 98.1463 25.4527 98.2372 25.587C98.3261 25.7213 98.4026 25.8639 98.4646 26.0128C98.5266 26.1636 98.5741 26.3166 98.6051 26.4757C98.6361 26.6349 98.6527 26.794 98.6527 26.9552V31.2748C98.6527 31.4361 98.6361 31.5973 98.6051 31.7564C98.5741 31.9135 98.5266 32.0685 98.4646 32.2173C98.4026 32.3661 98.3261 32.5087 98.2372 32.6431C98.1463 32.7774 98.045 32.9014 97.9314 33.0172C97.8156 33.1308 97.6916 33.2342 97.5573 33.323C97.4229 33.414 97.2803 33.4884 97.1315 33.5504C96.9806 33.6124 96.8277 33.6599 96.6685 33.6909C96.5094 33.7219 96.3502 33.7385 96.187 33.7385H88.8994C88.7382 33.7385 88.577 33.7219 88.4178 33.6909C88.2587 33.6599 88.1058 33.6124 87.9549 33.5504C87.8061 33.4884 87.6635 33.414 87.5291 33.323C87.3948 33.2342 87.2708 33.1308 87.1571 33.0172C87.0414 32.9014 86.9401 32.7774 86.8491 32.6431C86.7603 32.5087 86.6838 32.3661 86.6218 32.2173C86.5598 32.0685 86.5123 31.9135 86.4813 31.7564C86.4503 31.5973 86.4337 31.4361 86.4337 31.2748V26.9552C86.4337 26.794 86.4503 26.6349 86.4813 26.4757C86.5123 26.3166 86.5598 26.1636 86.6218 26.0128C86.6838 25.8639 86.7603 25.7213 86.8491 25.587C86.9401 25.4527 87.0414 25.3286 87.1571 25.215C87.2708 25.0992 87.3948 24.998 87.5291 24.907C87.6635 24.8181 87.8061 24.7417 87.9549 24.6797C88.1058 24.6177 88.2587 24.5722 88.4178 24.5412C88.577 24.5081 88.7382 24.4937 88.8994 24.4937Z" fill="white"/>
<path d="M154.74 47.679H162.305V44.8041H158.169V37.748H154.74V47.679Z" fill="white"/>
<path d="M165.973 47.679H169.402V37.748H165.973V47.679Z" fill="white"/>
<path d="M172.831 37.748L176.654 47.679H180.139L183.994 37.748H180.48L178.496 44.0952L176.499 37.748H172.831Z" fill="white"/>
<path d="M187.42 47.679H196.09V45.0439H190.849V44.0249H195.495V41.3898H190.849V40.3832H195.962V37.748H187.42V47.679Z" fill="white"/>
</svg>
